<?xml version="1.0" standalone="no"?>
<!DOCTYPE svg PUBLIC "-//W3C//DTD SVG 20010904//EN"
 "http://www.w3.org/TR/2001/REC-SVG-20010904/DTD/svg10.dtd">
<svg version="1.0" xmlns="http://www.w3.org/2000/svg"
 width="200.000000pt" height="200.000000pt" viewBox="0 0 200.000000 200.000000"
 preserveAspectRatio="xMidYMid meet">

<g transform="translate(0.000000,200.000000) scale(0.100000,-0.100000)"
fill="#000000" stroke="none">
<path d="M900 1893 c-61 -7 -203 -45 -259 -69 -30 -14 -91 -49 -135 -78 -399
-267 -520 -790 -278 -1201 63 -106 210 -253 317 -317 164 -97 377 -142 559
-119 208 27 374 109 526 261 154 154 235 320 261 533 23 181 -22 387 -119 552
-63 107 -210 254 -317 317 -163 96 -370 141 -555 121z m311 -62 c482 -123 759
-634 600 -1106 -74 -219 -254 -417 -466 -510 -208 -93 -482 -93 -690 0 -486
215 -662 827 -365 1266 122 179 336 322 535 358 33 6 71 13 85 15 51 9 228 -4
301 -23z"/>
<path d="M889 1821 c-330 -46 -604 -291 -690 -616 -30 -113 -30 -298 0 -410
80 -297 300 -517 596 -596 112 -30 298 -30 410 0 296 79 516 299 596 596 30
112 30 297 0 410 -93 353 -398 601 -758 619 -54 2 -123 1 -154 -3z m751 -736
c0 -2 -10 -25 -22 -50 l-22 -45 -55 0 c-109 0 -237 -51 -320 -127 l-46 -41 70
24 c53 18 92 24 163 24 50 0 92 -4 92 -9 0 -12 -98 -102 -153 -139 -108 -75
-207 -110 -384 -136 l-42 -6 17 29 c16 28 16 32 -1 60 -21 35 -21 60 -2 85 16
21 17 21 32 -7 8 -16 11 -12 22 22 18 60 31 60 31 0 l0 -53 31 50 c18 27 66
84 108 126 75 74 125 103 140 79 5 -7 18 -3 42 15 47 36 126 75 179 90 45 12
120 18 120 9z m-296 -19 c-9 -24 -84 -53 -84 -32 0 18 19 33 50 39 14 2 28 5
32 6 4 0 5 -5 2 -13z m-870 -105 c26 -29 92 -60 128 -61 33 0 58 -9 58 -21 0
-15 -119 -10 -150 6 -41 21 -80 76 -86 122 l-5 38 17 -30 c9 -16 26 -41 38
-54z"/>
</g>
</svg>
